<svg xmlns="http://www.w3.org/2000/svg" viewBox="0 0 336.63 327.12"><defs><style>.cls-1{fill:#2c7ddd;}.cls-2{fill:none;stroke:#2c7ddd;stroke-miterlimit:10;stroke-width:17px;}</style></defs><title>Recurso 19</title><g id="Capa_2" data-name="Capa 2"><g id="Capa_1-2" data-name="Capa 1"><path class="cls-1" d="M38.92,283.37a4.75,4.75,0,0,1-1.05,2.87A3.46,3.46,0,0,1,35,287.71a5,5,0,0,1-2.38-.63,17.16,17.16,0,0,0-7.42-1.61,17.08,17.08,0,0,0-8.54,2.06,14.06,14.06,0,0,0-5.6,5.81,18.21,18.21,0,0,0-2,8.58q0,8.25,4.44,12.53t11.66,4.27a16.14,16.14,0,0,0,7.42-1.61,5.53,5.53,0,0,1,2.24-.56,3.84,3.84,0,0,1,3.08,1.54A4.52,4.52,0,0,1,39,321a3.85,3.85,0,0,1-.56,2,3.69,3.69,0,0,1-1.61,1.4,25.62,25.62,0,0,1-11.62,2.73,27.48,27.48,0,0,1-12.6-2.91,22.3,22.3,0,0,1-9.17-8.57A26,26,0,0,1,0,301.92a25.26,25.26,0,0,1,3.25-12.81,23.16,23.16,0,0,1,9-8.86,26.27,26.27,0,0,1,13-3.18,25,25,0,0,1,11.55,2.73A3.73,3.73,0,0,1,38.92,283.37Z"/><path class="cls-1" d="M79.1,317.77a17.85,17.85,0,0,1-6.89,6.9,20.21,20.21,0,0,1-19.29,0,17.91,17.91,0,0,1-6.86-6.9,21.28,21.28,0,0,1,0-20.09,18.19,18.19,0,0,1,6.86-6.93,20,20,0,0,1,19.29,0,18.13,18.13,0,0,1,6.89,6.93,21.28,21.28,0,0,1,0,20.09ZM71.79,301.6a10.64,10.64,0,0,0-3.86-4.16,10.49,10.49,0,0,0-10.71,0,10.59,10.59,0,0,0-3.84,4.16,12.81,12.81,0,0,0-1.44,6.13,12.63,12.63,0,0,0,1.44,6.09A10.64,10.64,0,0,0,57.22,318a10.49,10.49,0,0,0,10.71,0,10.69,10.69,0,0,0,3.86-4.13,12.74,12.74,0,0,0,1.43-6.09A12.92,12.92,0,0,0,71.79,301.6Z"/><path class="cls-1" d="M118.51,292.5c1.82,2.83,2.73,6.73,2.73,11.73v17.92a4.19,4.19,0,0,1-1.19,3,4.3,4.3,0,0,1-6,0,4.19,4.19,0,0,1-1.19-3V304.23a10.12,10.12,0,0,0-1.61-6.06c-1.07-1.47-2.92-2.2-5.53-2.2a8.54,8.54,0,0,0-6.37,2.34A8.11,8.11,0,0,0,97,304.23v17.92a4.19,4.19,0,0,1-1.19,3,4.3,4.3,0,0,1-6,0,4.19,4.19,0,0,1-1.19-3V293.24a4.22,4.22,0,0,1,1.19-3.05,4.32,4.32,0,0,1,6,0A4.22,4.22,0,0,1,97,293.24v1.19a16.84,16.84,0,0,1,4.93-4.34,12.74,12.74,0,0,1,6.69-1.82Q115.78,288.27,118.51,292.5Z"/><path class="cls-1" d="M150.18,319.45a3.73,3.73,0,0,1-1.26,5.67,8.49,8.49,0,0,1-4.65,1.3,13.58,13.58,0,0,1-7.32-1.86c-2-1.23-3-3.86-3-7.87V297.37h-3.22a3.83,3.83,0,0,1-2.8-1.12,3.79,3.79,0,0,1-1.12-2.8,3.6,3.6,0,0,1,1.12-2.7,3.88,3.88,0,0,1,2.8-1.08H134v-4.48a4.17,4.17,0,0,1,4.27-4.27,4,4,0,0,1,2.94,1.22,4.22,4.22,0,0,1,1.19,3.05v4.48h5a3.83,3.83,0,0,1,3.92,3.92,3.61,3.61,0,0,1-1.12,2.69,3.85,3.85,0,0,1-2.8,1.09h-5v19a2.64,2.64,0,0,0,.77,2.13,3.06,3.06,0,0,0,2.1.67,6.4,6.4,0,0,0,1.54-.28,4,4,0,0,1,1.61-.35A2.31,2.31,0,0,1,150.18,319.45Z"/><path class="cls-1" d="M192.29,289.46a4.18,4.18,0,0,1,1.19,3.08v29.61a4.19,4.19,0,0,1-1.19,3,4.31,4.31,0,0,1-6,0,4.43,4.43,0,0,1-1.22-3,15.25,15.25,0,0,1-11,4.9,16,16,0,0,1-8.75-2.49,17.35,17.35,0,0,1-6.2-6.89,21.61,21.61,0,0,1-2.27-10,22.07,22.07,0,0,1,2.24-10.05,17.22,17.22,0,0,1,6.12-6.93,15.65,15.65,0,0,1,8.58-2.48,16.33,16.33,0,0,1,6.3,1.22,16.7,16.7,0,0,1,5,3.12v-.07a4.18,4.18,0,0,1,1.19-3.05,4.36,4.36,0,0,1,6,0Zm-9.73,26.63a12.34,12.34,0,0,0,2.87-8.36,12.5,12.5,0,0,0-2.87-8.4,9.32,9.32,0,0,0-7.42-3.36,9.22,9.22,0,0,0-7.35,3.36,13.75,13.75,0,0,0,0,16.76,9.24,9.24,0,0,0,7.39,3.33A9.36,9.36,0,0,0,182.56,316.09Z"/><path class="cls-1" d="M228.48,290.12c2.42,1.24,3.64,2.88,3.64,4.94a4.27,4.27,0,0,1-.91,2.69,2.9,2.9,0,0,1-2.38,1.16,4.43,4.43,0,0,1-1.82-.32,6.65,6.65,0,0,1-1.37-.84,9.14,9.14,0,0,0-1.29-.87,8.28,8.28,0,0,0-2.07-.63,11.21,11.21,0,0,0-2.2-.28,10.6,10.6,0,0,0-8.23,3.25,12.14,12.14,0,0,0-3,8.51,12,12,0,0,0,3,8.36,9.9,9.9,0,0,0,7.7,3.33,11.93,11.93,0,0,0,5.11-.84,9.66,9.66,0,0,0,1.15-.74,7.51,7.51,0,0,1,1.37-.8,3.72,3.72,0,0,1,1.54-.28,3.52,3.52,0,0,1,2.76,1.12,3.9,3.9,0,0,1-.94,6,15.29,15.29,0,0,1-5.18,2.34,25.84,25.84,0,0,1-6.86.88,17.73,17.73,0,0,1-9.49-2.52,16.89,16.89,0,0,1-6.33-7,21.58,21.58,0,0,1-2.24-9.9,21.18,21.18,0,0,1,2.34-10.08,17.35,17.35,0,0,1,6.55-6.9,18.39,18.39,0,0,1,9.52-2.48A21.32,21.32,0,0,1,228.48,290.12Z"/><path class="cls-1" d="M258.47,319.45a3.73,3.73,0,0,1-1.26,5.67,8.51,8.51,0,0,1-4.65,1.3,13.56,13.56,0,0,1-7.32-1.86c-2-1.23-3-3.86-3-7.87V297.37h-3.22a3.83,3.83,0,0,1-3.92-3.92,3.6,3.6,0,0,1,1.12-2.7,3.86,3.86,0,0,1,2.8-1.08h3.22v-4.48a4.17,4.17,0,0,1,4.27-4.27,4,4,0,0,1,2.94,1.22,4.22,4.22,0,0,1,1.19,3.05v4.48h5a3.83,3.83,0,0,1,3.92,3.92,3.61,3.61,0,0,1-1.12,2.69,3.85,3.85,0,0,1-2.8,1.09h-5v19a2.64,2.64,0,0,0,.77,2.13,3.06,3.06,0,0,0,2.1.67,6.4,6.4,0,0,0,1.54-.28,4,4,0,0,1,1.61-.35A2.31,2.31,0,0,1,258.47,319.45Z"/><path class="cls-1" d="M300.37,317.77a17.81,17.81,0,0,1-6.9,6.9,20.19,20.19,0,0,1-19.28,0,17.84,17.84,0,0,1-6.86-6.9,21.28,21.28,0,0,1,0-20.09,18.12,18.12,0,0,1,6.86-6.93,20,20,0,0,1,19.28,0,18.09,18.09,0,0,1,6.9,6.93,21.28,21.28,0,0,1,0,20.09Zm-7.32-16.17a10.54,10.54,0,0,0-3.85-4.16,10.49,10.49,0,0,0-10.71,0,10.61,10.61,0,0,0-3.85,4.16,12.92,12.92,0,0,0-1.43,6.13,12.74,12.74,0,0,0,1.43,6.09,10.67,10.67,0,0,0,3.85,4.13,10.49,10.49,0,0,0,10.71,0,10.59,10.59,0,0,0,3.85-4.13,12.63,12.63,0,0,0,1.44-6.09A12.81,12.81,0,0,0,293.05,301.6Z"/><path class="cls-1" d="M307.09,318.51a3.65,3.65,0,0,1,1.82-3.08,3.7,3.7,0,0,1,2-.63,3.94,3.94,0,0,1,2.8,1.33,15,15,0,0,0,4.37,3.22,13.07,13.07,0,0,0,5.5,1q5.46-.21,5.46-4.13a3.34,3.34,0,0,0-1.86-3.08,26.05,26.05,0,0,0-5.77-2.1,51.86,51.86,0,0,1-6.62-2.24,11.77,11.77,0,0,1-4.41-3.4,9.43,9.43,0,0,1-1.85-6.12,9.3,9.3,0,0,1,1.92-5.85,12.82,12.82,0,0,1,5-3.85,16.31,16.31,0,0,1,6.62-1.36,20.25,20.25,0,0,1,7.14,1.33,12.38,12.38,0,0,1,5.6,3.92,3.9,3.9,0,0,1,.91,2.52,3.27,3.27,0,0,1-1.33,2.66,3.56,3.56,0,0,1-2.24.77,3.41,3.41,0,0,1-2.52-1,8.8,8.8,0,0,0-3.26-2.45,10.69,10.69,0,0,0-4.51-.91q-5.32,0-5.32,3.85a3.27,3.27,0,0,0,1,2.48,6.67,6.67,0,0,0,2.48,1.47c1,.35,2.42.78,4.24,1.3a45.84,45.84,0,0,1,6.3,2.17,10.78,10.78,0,0,1,4.27,3.43,9.87,9.87,0,0,1,1.75,6.09,9.35,9.35,0,0,1-2,6,12.85,12.85,0,0,1-5.22,3.89,16.92,16.92,0,0,1-6.54,1.33,23.85,23.85,0,0,1-8.61-1.54,14.38,14.38,0,0,1-6.51-5A3.4,3.4,0,0,1,307.09,318.51Z"/><path class="cls-2" d="M109.36,128.65h121.2A43.4,43.4,0,0,1,274,172V205.3a8.62,8.62,0,0,1-8.62,8.62H74.58A8.62,8.62,0,0,1,66,205.3V172A43.4,43.4,0,0,1,109.36,128.65Z"/><circle class="cls-2" cx="170.29" cy="68.25" r="59.75"/></g></g></svg>